<svg id="Calque_1" data-name="Calque 1" xmlns="http://www.w3.org/2000/svg" viewBox="0 0 200 200"><defs><style>.cls-1{fill:#1d1d1b;}.cls-2{fill:#ffd402;}</style></defs><path class="cls-1" d="M94.53,105.65H68.15v24.6h29.4v7.39H59.39V69.41H96V76.8H68.15V98.36H94.53Z"/><path class="cls-2" d="M102.23,49.56h18.12a55.21,55.21,0,0,1,8.2.52,16.72,16.72,0,0,1,6.58,2.51,18.77,18.77,0,0,1,5.48,5.5,29.39,29.39,0,0,1,3.69,8,39.53,39.53,0,0,1,1.34,11q0,12.33-5.52,20.26t-19,7.93H102.23Zm6.94,49.16h11.25a37.78,37.78,0,0,0,6.15-.45,13.14,13.14,0,0,0,5.48-2.48,14.54,14.54,0,0,0,4.6-6.62A33.57,33.57,0,0,0,138.48,77a41.06,41.06,0,0,0-.7-7.82,19.14,19.14,0,0,0-2.58-6.62,12.49,12.49,0,0,0-4.32-4.38,12.87,12.87,0,0,0-4.74-1.69,45.58,45.58,0,0,0-5.93-.31h-11Z"/><path class="cls-1" d="M26,163.66V153.27H23.92v-1.73H37.14v4.17h-2v-2.44H28.38v4.12h5.91v1.74H28.38v4.53h6.79v-2.52h2v4.25H23.92v-1.73Z"/><path class="cls-1" d="M49,160.52H43.28l-1.21,3.14H44v1.73H37.73v-1.73h1.93L44,153.1H42.08v-1.56h8.13v1.56h-2l4.45,10.56h1.78v1.73H48.22v-1.73h2Zm-.6-1.62-2.11-5.8h-.22l-2.2,5.8Z"/><path class="cls-1" d="M55.08,165.39v-5h2v1.23a4.28,4.28,0,0,0,3.74,2.26,3.16,3.16,0,0,0,2-.63,2,2,0,0,0,.81-1.64,1.57,1.57,0,0,0-.66-1.42,8.61,8.61,0,0,0-2.51-.86,20.8,20.8,0,0,1-3.17-1,3.91,3.91,0,0,1-1.64-1.26,3.23,3.23,0,0,1-.61-2,3.36,3.36,0,0,1,1.33-2.78,5.25,5.25,0,0,1,3.35-1,6.29,6.29,0,0,1,3.54,1.07v-.92h1.95v4.2H63.24v-1a4,4,0,0,0-3.37-1.6,3.27,3.27,0,0,0-2,.52,1.53,1.53,0,0,0-.7,1.25,1.45,1.45,0,0,0,.36,1,2,2,0,0,0,.9.63,20.63,20.63,0,0,0,2.16.55,19.46,19.46,0,0,1,3,.89,4,4,0,0,1,1.64,1.38,3.76,3.76,0,0,1,.69,2.23,3.6,3.6,0,0,1-1.44,2.93A5.48,5.48,0,0,1,61,165.61a6.16,6.16,0,0,1-3.91-1.36v1.14Z"/><path class="cls-1" d="M73.14,163.66v-4.57l-4.74-5.82H66.46v-1.73H73v1.73H71l3.52,4.28,3.21-4.28h-2v-1.73h6.34v1.73H80l-4.41,5.82v4.57h2.17v1.73H71v-1.73Z"/><path class="cls-2" d="M90.14,163.66V153.27H88v-1.73h6.15a26.17,26.17,0,0,1,3.93.22,7.35,7.35,0,0,1,2.67,1,5.88,5.88,0,0,1,2.06,2.22,6.52,6.52,0,0,1,.78,3.21,8,8,0,0,1-.75,3.57,5.26,5.26,0,0,1-1.95,2.26,8.07,8.07,0,0,1-2.87,1,24.69,24.69,0,0,1-4.23.29H88v-1.73Zm2.4,0H93.8a19.3,19.3,0,0,0,3.33-.23,5.64,5.64,0,0,0,2.08-.78,4,4,0,0,0,1.37-1.67,6.11,6.11,0,0,0,.53-2.63,5.25,5.25,0,0,0-.87-3.06,4,4,0,0,0-2.2-1.64,16.69,16.69,0,0,0-4.14-.38H92.54Z"/><path class="cls-2" d="M107.21,163.66V153.27H105.5v-1.73h5.83v1.73h-1.71v10.39h1.71v1.73H105.5v-1.73Z"/><path class="cls-2" d="M124,158.71h5.78c0,.18,0,.34,0,.48a5.69,5.69,0,0,1-2.19,4.67,9,9,0,0,1-5.8,1.75q-4.32,0-6.43-2.13a7,7,0,0,1-2.11-5.06,6.67,6.67,0,0,1,2.16-5.08,8.23,8.23,0,0,1,5.87-2,8.78,8.78,0,0,1,5.58,1.76v-1.54h2v4.55h-2a5.27,5.27,0,0,0-2-2,6.34,6.34,0,0,0-3.34-.89,5.49,5.49,0,0,0-4.11,1.53,5.09,5.09,0,0,0-1.51,3.7,4.89,4.89,0,0,0,1.72,3.94,6.24,6.24,0,0,0,4.14,1.45,6.33,6.33,0,0,0,3.39-.92,3.5,3.5,0,0,0,1.74-2.42H124Z"/><path class="cls-2" d="M133.32,163.66V153.27h-1.71v-1.73h5.83v1.73h-1.72v10.39h1.72v1.73h-5.83v-1.73Z"/><path class="cls-2" d="M143.72,163.66V153.27h-3.29v3.54h-2v-5.27h12.88v5.27h-2v-3.54h-3.27v10.39h2.07v1.73h-6.51v-1.73Z"/><path class="cls-2" d="M162.13,160.52H156.4l-1.21,3.14h1.93v1.73h-6.27v-1.73h1.93l4.34-10.56H155.2v-1.56h8.13v1.56h-2l4.45,10.56h1.78v1.73h-6.23v-1.73h2Zm-.6-1.62-2.11-5.8h-.22l-2.2,5.8Z"/><path class="cls-2" d="M169.78,163.66V153.27h-2.06v-1.73h6.51v1.73h-2v10.39h4.87V159h2.24v6.44H167.72v-1.73Z"/><rect class="cls-2" x="70.46" y="113.86" width="79.45" height="2.97"/><polyline class="cls-2" points="70.46 124.82 149.91 124.82 149.91 128.02 70.46 128.02"/></svg>